PathFileType	4	(X/Y/Z)	c:/Users/goper/Files/vsCode/490R/osim_files/C08/C08_Slow_05.trc
DataRate	CameraRate	NumFrames	NumMarkers	Units                	OrigDataRate	OrigDataStartFrame	OrigNumFrames
250.00	250.00	8	36	mm	250.0	1726	2761
                Frame#	Time	LPSIS			LASIS			LTH1			LTH2			LTH3			LTH4			LLFE			LMFE			LSH1			LSH2			LSH3			LSH4			LLMAL			LMMAL			LCAL			LMTP5			LTOE			LMTP1			RPSIS			RASIS			RTH1			RTH2			RTH3			RTH4			RLFE			RMFE			RSH1			RSH2			RSH3			RSH4			RLMAL			RMMAL			RCAL			RMTP1			RTOE			RMTP5		
		X1	Y1	Z1	X2	Y2	Z2	X3	Y3	Z3	X4	Y4	Z4	X5	Y5	Z5	X6	Y6	Z6	X7	Y7	Z7	X8	Y8	Z8	X9	Y9	Z9	X10	Y10	Z10	X11	Y11	Z11	X12	Y12	Z12	X13	Y13	Z13	X14	Y14	Z14	X15	Y15	Z15	X16	Y16	Z16	X17	Y17	Z17	X18	Y18	Z18	X19	Y19	Z19	X20	Y20	Z20	X21	Y21	Z21	X22	Y22	Z22	X23	Y23	Z23	X24	Y24	Z24	X25	Y25	Z25	X26	Y26	Z26	X27	Y27	Z27	X28	Y28	Z28	X29	Y29	Z29	X30	Y30	Z30	X31	Y31	Z31	X32	Y32	Z32	X33	Y33	Z33	X34	Y34	Z34	X35	Y35	Z35	X36	Y36	Z36

1726	6.90000	-1514.05627	1033.28748	260.37686	-1724.70764	998.18097	336.18716	-1696.50757	722.55396	413.23804	-1721.03369	649.76233	394.21054	-1743.39929	580.27759	385.22491	-1794.25720	679.77734	383.82883	-1761.80957	535.42792	375.63324	-1780.84338	529.23944	245.73714	-1752.89429	398.95737	379.23358	-1775.24670	357.57697	381.43570	-1808.71118	423.60773	387.84567	-1822.28772	380.01675	386.68079	-1901.52454	104.67522	331.01959	-1921.54651	130.00719	249.75230	-1852.62878	62.51665	273.44086	-2031.10303	89.86813	363.45316	-2072.60522	145.20404	312.45926	-2053.35034	117.71932	257.46078	-1513.48376	1033.24951	200.78105	-1704.11023	994.02075	96.99488	-1591.12451	741.90497	47.10304	-1573.99451	665.85089	66.93362	-1554.18286	591.04773	72.13741	-1647.76855	654.79803	92.85146	-1537.09937	519.11414	97.42654	-1538.23401	514.13434	221.60164	-1456.14258	454.53094	83.23057	-1448.77844	410.53577	78.98962	-1515.21802	437.20935	88.23151	-1500.64795	395.00491	84.65330	-1358.53223	121.18719	142.05115	-1393.55017	119.54047	228.31696	-1298.78259	104.43050	215.52184	-1505.61719	42.36497	206.66792	-1521.42322	55.97738	151.08299	-1462.02710	42.73046	94.74394
1727	6.90400	-1518.48914	1032.85913	260.78946	-1729.18323	997.75488	336.48700	-1701.23596	722.26837	413.20569	-1725.64844	649.52802	394.10565	-1748.36877	580.13123	384.92416	-1798.98596	679.74243	383.54865	-1766.63196	535.22101	375.33893	-1786.00818	529.38489	245.84299	-1757.10034	398.54391	378.69751	-1779.19763	357.10190	380.87997	-1813.02002	422.89667	387.50244	-1826.39233	379.20129	386.28857	-1903.96924	103.77118	330.24350	-1924.28735	129.04527	248.97043	-1854.94080	62.51827	272.47247	-2033.47742	88.34130	362.63449	-2075.30688	143.52177	311.72369	-2056.01489	116.05371	256.64236	-1517.90356	1032.88806	201.19377	-1708.46338	993.70557	97.31396	-1595.27063	741.70959	47.34683	-1578.03503	665.62115	67.09039	-1558.15161	590.88892	72.19267	-1651.80835	654.48938	92.98335	-1540.78955	518.99792	97.51917	-1542.14673	513.93835	221.64253	-1459.47168	454.89383	83.25510	-1451.74121	410.93979	78.96658	-1518.35999	437.17114	88.21158	-1503.53748	395.05142	84.65009	-1359.19495	122.28661	141.77014	-1394.36646	120.33224	228.09705	-1299.42603	105.94566	215.31009	-1505.74927	42.31951	206.65886	-1521.60486	55.86869	150.97624	-1462.17920	42.72937	94.66452
1728	6.90800	-1522.99524	1032.46069	261.19421	-1733.74536	997.32037	336.85431	-1706.17200	721.88672	413.32022	-1730.58765	649.31793	393.94016	-1753.44165	579.99023	384.61136	-1803.88232	679.81427	383.28387	-1771.80322	535.08569	375.05814	-1791.26794	529.60474	245.92517	-1761.32507	398.31595	378.18695	-1783.16931	356.58246	380.29947	-1817.43799	422.15552	387.17889	-1830.43311	378.34802	385.86380	-1906.07397	103.02462	329.54001	-1926.81067	127.98238	248.09834	-1856.48157	62.53135	271.86584	-2035.33862	86.63123	361.87219	-2077.73560	141.22626	310.80209	-2058.07300	113.45555	255.76628	-1522.35876	1032.47754	201.65184	-1712.88000	993.40601	97.62654	-1599.43091	741.51874	47.58364	-1582.18787	665.41058	67.25099	-1562.07166	590.64331	72.23199	-1655.89087	654.16779	93.12568	-1544.59070	518.84045	97.55544	-1546.06140	513.62085	221.71631	-1462.75879	455.28217	83.15785	-1454.84790	411.32843	78.96224	-1521.52808	437.18484	88.12094	-1506.53552	395.05933	84.65479	-1360.26660	123.20229	141.64044	-1395.15698	121.13608	227.83015	-1300.09802	107.49894	215.03738	-1505.82593	42.24004	206.67410	-1521.79749	55.75369	150.89252	-1462.28955	42.70696	94.56455
1729	6.91200	-1527.56177	1031.94800	261.63409	-1738.36450	996.83081	337.24722	-1711.15759	721.63727	413.24457	-1735.69788	649.08154	393.74536	-1758.68188	579.86884	384.34467	-1808.84375	679.90417	382.98660	-1776.94617	534.92273	374.77814	-1795.98132	529.52332	246.11320	-1765.57678	397.98553	377.78235	-1787.12451	356.02960	379.81943	-1821.87683	421.37018	386.81311	-1834.53259	377.45535	385.41760	-1907.71814	102.34096	328.85123	-1928.89197	126.73631	247.28960	-1857.55701	62.56757	271.23560	-2036.64990	84.77084	361.13593	-2079.94312	138.25078	309.74341	-2061.10352	111.15873	253.90968	-1526.88635	1032.06079	202.12111	-1717.34619	993.08759	97.95671	-1603.66919	741.30768	47.78931	-1586.34473	665.14972	67.40461	-1565.78076	590.90546	71.74877	-1660.01514	653.83911	93.30084	-1548.49121	518.67969	97.63208	-1550.53320	513.12067	222.24170	-1466.73206	455.30997	83.37277	-1458.08813	411.64139	78.93958	-1524.79028	437.14694	88.05750	-1509.61865	395.04932	84.64060	-1361.16528	124.23119	141.37411	-1395.99792	121.93994	227.61354	-1300.88037	109.06843	214.80188	-1505.93750	42.16582	206.69475	-1521.98889	55.58088	150.82846	-1462.44983	42.69941	94.49616
1730	6.91600	-1532.19788	1031.50317	262.07303	-1743.02832	996.40344	337.71503	-1716.14648	721.38678	413.21027	-1740.81873	648.88068	393.53903	-1763.97815	579.73865	384.03070	-1813.76587	679.96375	382.64359	-1782.20471	534.78436	374.46707	-1801.31360	529.78650	246.06575	-1769.83215	397.77463	377.39099	-1790.86877	355.77460	379.29068	-1826.35645	420.61411	386.42950	-1838.60596	376.58679	384.90027	-1908.84387	101.56560	328.28613	-1930.52966	125.24689	246.45039	-1858.32214	62.47167	270.51544	-2037.52075	82.72261	360.46036	-2081.78394	134.89784	308.70850	-2062.52173	107.62108	252.99777	-1531.44714	1031.64172	202.54073	-1719.64417	992.14557	97.99965	-1607.97485	741.03613	48.00922	-1590.55737	664.89703	67.56654	-1569.94031	590.60394	71.77004	-1664.23486	653.50201	93.46027	-1552.51111	518.45184	97.66219	-1554.00024	513.01056	221.85123	-1470.21277	455.70505	83.30874	-1461.31177	411.99783	78.92220	-1528.12964	437.07132	87.96722	-1512.75293	395.03693	84.57703	-1362.10620	125.32567	141.14879	-1396.88391	122.76815	227.37138	-1301.70349	110.71429	214.54713	-1506.02148	42.09206	206.71143	-1522.19141	55.45699	150.74933	-1462.58594	42.69808	94.38971
1731	6.92000	-1536.81763	1031.05151	262.49335	-1747.71057	995.90527	338.21066	-1721.27441	721.15179	413.12601	-1745.99634	648.71906	393.28061	-1769.34033	579.65466	383.67102	-1818.82043	680.09406	382.34961	-1787.49634	534.61261	374.15164	-1806.52100	529.99036	246.00703	-1774.35327	397.35904	376.29666	-1794.15100	354.85138	378.19666	-1830.89502	419.90195	385.96329	-1842.95862	375.76654	384.46460	-1909.71521	100.57018	327.71732	-1931.80029	123.51814	245.59270	-1859.07031	62.25924	269.73737	-2038.34180	80.48903	359.99942	-2083.32666	131.34763	307.72067	-2063.96777	103.94645	252.25945	-1535.97693	1031.27979	202.99181	-1726.25134	992.40662	98.64925	-1612.20605	740.76990	48.26012	-1594.85107	664.59930	67.68365	-1574.28638	590.30029	71.79256	-1668.51758	653.19183	93.59933	-1556.60925	518.21460	97.68743	-1558.11670	512.66534	221.80177	-1473.95435	455.95303	83.34925	-1464.67664	412.37415	78.90518	-1531.58716	436.95642	87.94875	-1515.92944	394.99292	84.53550	-1363.14844	126.38312	140.87526	-1397.77454	123.68197	227.07953	-1302.50757	112.42315	214.23128	-1506.11768	42.05900	206.73434	-1522.40186	55.33298	150.65704	-1462.73560	42.69856	94.28441
1732	6.92400	-1541.54626	1030.62585	262.92157	-1752.47351	995.43311	338.71667	-1726.33630	720.88715	413.03613	-1751.21924	648.54498	393.03485	-1774.75500	579.57422	383.34161	-1823.91858	680.18970	381.99017	-1792.86230	534.49683	373.85623	-1811.65991	530.14679	245.88936	-1778.35718	397.35944	376.88638	-1798.70923	354.64627	378.53937	-1835.35400	419.20013	385.44092	-1846.82190	374.96326	383.75626	-1910.33374	99.49786	327.07947	-1932.97095	121.71780	244.77011	-1859.71814	62.08574	268.94629	-2039.14270	78.12914	359.56235	-2084.68115	127.92766	306.90338	-2065.19507	100.40234	251.55507	-1540.63977	1030.86267	203.44504	-1730.71790	992.05066	98.97454	-1616.57349	740.47382	48.52959	-1599.22864	664.35223	67.80936	-1578.64661	589.98914	71.78169	-1672.82593	652.86743	93.74165	-1560.78882	517.94391	97.69561	-1562.39099	512.29999	221.80983	-1477.74609	456.23401	83.32945	-1468.09485	412.73901	78.84962	-1535.12451	436.83087	87.91080	-1519.15283	394.93619	84.48522	-1363.90198	127.60207	140.54720	-1398.83752	124.75169	227.07138	-1303.39612	114.20254	213.94780	-1506.25293	42.03377	206.75209	-1522.59253	55.25935	150.52711	-1462.92322	42.71222	94.17523
1733	6.92800	-1546.31580	1030.20642	263.35141	-1757.35339	994.97345	339.25424	-1731.51611	720.62781	412.91290	-1756.52502	648.34741	392.76837	-1780.11475	579.43066	383.01065	-1829.05347	680.24188	381.65302	-1798.16150	534.34692	373.57260	-1816.58679	530.18701	245.79520	-1782.53882	397.23395	376.70520	-1802.49084	354.31595	378.21414	-1839.80286	418.51584	384.89038	-1850.83093	374.15988	383.11765	-1911.07373	98.39867	326.44217	-1934.12634	120.04497	243.84201	-1860.46228	61.96990	268.14432	-2039.98523	75.80180	359.12021	-2085.35742	124.18400	306.32224	-2065.16284	96.42290	251.86479	-1545.25647	1030.52502	203.92435	-1735.35388	991.70618	99.32059	-1620.92529	740.19379	48.76144	-1603.62976	663.99915	67.94498	-1583.16296	589.60181	71.80445	-1677.23328	652.54529	93.88224	-1565.07617	517.63989	97.72656	-1567.41479	511.89569	222.25453	-1481.54578	456.52533	83.29161	-1471.60083	413.12735	78.82584	-1538.71216	436.66861	87.81694	-1522.52051	394.87921	84.40486	-1365.26624	128.73248	140.32600	-1399.89795	125.65707	226.73987	-1304.29736	116.09537	213.62943	-1506.38904	42.02559	206.76674	-1522.78552	55.21443	150.44418	-1463.09265	42.71433	94.06875
